<svg xmlns="http://www.w3.org/2000/svg" width="920" height="700" viewBox="0 0 920 700"><rect width="920" height="700" fill="#0d1117"/><rect x="10" y="10" width="900" height="680" rx="22" fill="#0d1117" stroke="#303b4a"/><rect x="10" y="10" width="900" height="70" rx="22" fill="#111720"/><text x="35" y="53" fill="#f0f6fc" font-family="Segoe UI,Arial" font-size="22" font-weight="700">Acerca de</text><text x="860" y="53" fill="#f0f6fc" font-family="Segoe UI,Arial" font-size="30">×</text><rect x="50" y="115" width="86" height="86" rx="18" fill="#202937" stroke="#4a596d"/><circle cx="93" cy="158" r="27" fill="#3a4658"/><text x="155" y="158" fill="#f0f6fc" font-family="Segoe UI,Arial" font-size="34" font-weight="700">Codex Account Switcher v1.7.2</text><text x="155" y="196" fill="#a9bad2" font-family="Segoe UI,Arial" font-size="21">Creado por IMC93Labs</text><rect x="50" y="235" width="820" height="330" rx="22" fill="#151b23" stroke="#354154"/><text x="75" y="287" fill="#f0f6fc" font-family="Segoe UI,Arial" font-size="28" font-weight="700">Actualizaciones</text><text x="75" y="325" fill="#d7e1ed" font-family="Segoe UI,Arial" font-size="20">Versión instalada: 1.7.2</text><rect x="710" y="290" width="18" height="18" fill="#fff"/><path d="M713 299l4 4 8-10" fill="none" stroke="#28303b" stroke-width="3"/><text x="739" y="307" fill="#f0f6fc" font-family="Segoe UI,Arial" font-size="19">Automático</text><text x="75" y="365" fill="#27d8d1" font-family="Segoe UI,Arial" font-size="18">Comprobación automática cada 24 horas.</text><rect x="500" y="430" width="120" height="56" rx="14" fill="#202938" stroke="#42506a"/><rect x="642" y="430" width="150" height="56" rx="14" fill="#202938" stroke="#42506a"/><text x="538" y="465" fill="#f0f6fc" font-family="Segoe UI,Arial" font-size="21">GitHub</text><text x="684" y="465" fill="#f0f6fc" font-family="Segoe UI,Arial" font-size="21">Buscar</text><rect x="690" y="600" width="160" height="58" rx="14" fill="#202938" stroke="#42506a"/><text x="739" y="637" fill="#f0f6fc" font-family="Segoe UI,Arial" font-size="21">Cerrar</text><text x="650" y="682" fill="#65758a" font-family="Segoe UI,Arial" font-size="12">Captura de demostración</text></svg>